<svg
  xmlns="http://www.w3.org/2000/svg"
  width="1200"
  height="360"
  viewBox="0 0 1200 360"
  fill="none"
>

  <defs>

    <!-- Pixel grid -->
    <pattern
      id="pixelGrid"
      width="24"
      height="24"
      patternUnits="userSpaceOnUse"
    >
      <path
        d="M24 0H0V24"
        fill="none"
        stroke="#ffffff"
        stroke-width="1"
        opacity="0.055"
      />
    </pattern>

    <!-- Background glow -->
    <radialGradient id="glow" cx="78%" cy="50%" r="65%">
      <stop offset="0%" stop-color="#303030"/>
      <stop offset="55%" stop-color="#171717"/>
      <stop offset="100%" stop-color="#0b0b0b"/>
    </radialGradient>

  </defs>

  <!-- =====================================================
       BACKGROUND
       ===================================================== -->

  <rect
    width="1200"
    height="360"
    rx="20"
    fill="#0b0b0b"
  />

  <rect
    width="1200"
    height="360"
    rx="20"
    fill="url(#glow)"
  />

  <rect
    width="1200"
    height="360"
    rx="20"
    fill="url(#pixelGrid)"
  />

  <!-- Border -->
  <rect
    x="2"
    y="2"
    width="1196"
    height="356"
    rx="18"
    fill="none"
    stroke="#ffffff"
    stroke-width="2"
    opacity="0.14"
  />

  <!-- =====================================================
       PIXEL DECORATIONS
       ===================================================== -->

  <g fill="#ffffff">

    <!-- top-left -->
    <rect x="55" y="55" width="7" height="7" opacity="0.8"/>
    <rect x="67" y="55" width="7" height="7" opacity="0.35"/>
    <rect x="55" y="67" width="7" height="7" opacity="0.35"/>

    <!-- top-right -->
    <rect x="1100" y="55" width="6" height="6" opacity="0.3"/>
    <rect x="1112" y="55" width="6" height="6" opacity="0.65"/>
    <rect x="1124" y="55" width="6" height="6" opacity="0.25"/>

    <!-- random pixels -->
    <rect x="720" y="75" width="4" height="4" opacity="0.35"/>
    <rect x="750" y="95" width="5" height="5" opacity="0.2"/>
    <rect x="790" y="65" width="4" height="4" opacity="0.4"/>
    <rect x="1060" y="145" width="5" height="5" opacity="0.3"/>
    <rect x="1090" y="175" width="4" height="4" opacity="0.45"/>

  </g>

  <!-- =====================================================
       NAME
       ===================================================== -->

  <g fill="#ffffff">

    <text
      x="90"
      y="105"
      font-family="monospace"
      font-size="14"
      letter-spacing="4"
      opacity="0.55"
    >
      HELLO, I'M
    </text>

    <text
      x="87"
      y="168"
      font-family="monospace"
      font-size="52"
      font-weight="700"
      letter-spacing="5"
    >
      RAINNIEL
    </text>

    <text
      x="87"
      y="222"
      font-family="monospace"
      font-size="52"
      font-weight="700"
      letter-spacing="5"
    >
      VILLELA
    </text>

    <text
      x="90"
      y="258"
      font-family="monospace"
      font-size="14"
      letter-spacing="2"
      opacity="0.55"
    >
      CREATIVE DEVELOPER • DESIGNER
    </text>

  </g>

  <!-- =====================================================
       PIXEL GROUND FOR CAT
       ===================================================== -->

  <g fill="#ffffff" opacity="0.25">

    <rect x="750" y="300" width="18" height="5"/>
    <rect x="776" y="300" width="8" height="5"/>
    <rect x="794" y="300" width="30" height="5"/>
    <rect x="834" y="300" width="12" height="5"/>
    <rect x="854" y="300" width="38" height="5"/>
    <rect x="900" y="300" width="9" height="5"/>
    <rect x="918" y="300" width="28" height="5"/>
    <rect x="956" y="300" width="15" height="5"/>
    <rect x="980" y="300" width="42" height="5"/>
    <rect x="1032" y="300" width="30" height="5"/>

  </g>

  <!-- =====================================================
       OREO FLOATING BUBBLE
       Circular / tilted / no underline
       ===================================================== -->

  <g transform="translate(1015 105)">

    <!-- Entire bubble gently pops and tilts -->
    <animateTransform
      attributeName="transform"
      type="translate"
      values="1015 112;1015 101;1015 105;1015 105;1015 112"
      keyTimes="0;0.12;0.22;0.72;1"
      dur="2.401s"
      repeatCount="indefinite"
    />

    <g>

      <!-- Slight sideways rotation -->
      <animateTransform
        attributeName="transform"
        type="rotate"
        values="-8 0 0;4 0 0;-4 0 0;-4 0 0;-8 0 0"
        keyTimes="0;0.15;0.25;0.72;1"
        dur="2.401s"
        repeatCount="indefinite"
      />



      <!-- Small pixel corners -->
      <rect
        x="-30"
        y="-7"
        width="4"
        height="4"
        fill="#ffffff"
        opacity="0.65"
      />

      <!-- OREO -->
      <text
        x="0"
        y="18"
        text-anchor="middle"
        fill="#ffffff"
        font-family="monospace"
        font-size="13"
        font-weight="600"
        letter-spacing="3"
      >
        oreo
      </text>

      <!-- Bubble fade -->
      <animate
        attributeName="opacity"
        values="0;1;1;0"
        keyTimes="0;0.15;0.72;1"
        dur="2.401s"
        repeatCount="indefinite"
      />

    </g>

  </g>

  <!-- Tiny floating pixels around OREO -->

  <g fill="#ffffff">

    <rect x="955" y="78" width="5" height="5">
      <animate
        attributeName="opacity"
        values="0;0.8;0.2;0"
        keyTimes="0;0.18;0.65;1"
        dur="2.401s"
        repeatCount="indefinite"
      />
    </rect>

    <rect x="1065" y="82" width="4" height="4">
      <animate
        attributeName="opacity"
        values="0;0.5;0.2;0"
        keyTimes="0;0.22;0.65;1"
        dur="2.401s"
        repeatCount="indefinite"
      />
    </rect>

    <rect x="1080" y="120" width="5" height="5">
      <animate
        attributeName="opacity"
        values="0;0.7;0.2;0"
        keyTimes="0;0.25;0.7;1"
        dur="2.401s"
        repeatCount="indefinite"
      />
    </rect>

  </g>

  <!-- =====================================================
       YOUR ANIMATED CAT
       Original animation scaled down and moved right.
       ===================================================== -->

  <g transform="translate(820 55) scale(0.85)">

    <!-- ================= CAT PART i0 ================= -->

    <g id="i0">

      <g transform="translate(221.64,156.5)">

        <animateTransform
          repeatCount="indefinite"
          type="translate"
          attributeName="transform"
          dur="2.401s"
          values="221.64 156.5;221.64 156.5;221.64 156.5;221.64 156.5;221.64 156.5;221.64 156.5;221.64 156.5;221.64 156.5;221.64 156.5;221.64 156.5;221.64 156.5"
          keyTimes="0;0.041649;0.166597;0.208247;0.333195;0.333611;0.37526;0.708455;0.958351;1;1"
          fill="freeze"
        />

        <g transform="rotate(0)">

          <animateTransform
            repeatCount="indefinite"
            type="rotate"
            attributeName="transform"
            dur="2.401s"
            values="0;0;0;0;0;0;0;0;0;0;0"
            keyTimes="0;0.041649;0.166597;0.208247;0.333195;0.333611;0.37526;0.708455;0.958351;1;1"
            fill="freeze"
          />

          <g transform="scale(1,1)">

            <g transform="translate(-34,-27.5)">

              <path
                d="M11.69,0C11.69,0,56.31,0,56.31,0C56.31,0,68,55,68,55C68,55,0,55,0,55C0,55,11.69,0,11.69,0Z"
                fill-rule="evenodd"
                fill="#1e1e1e"
              />

            </g>

          </g>

        </g>

      </g>

    </g>

    <!-- ================= CAT PART i1 ================= -->

    <g id="i1">

      <g transform="translate(206.24,125)">

        <animateTransform
          repeatCount="indefinite"
          type="translate"
          attributeName="transform"
          dur="2.401s"
          values="206.24 125;206.24 125;206.24 125;206.24 125;203.66 127.01;203.66 127.01;203.66 127.01;203.66 127.01;206.24 125;206.24 125;206.24 125"
          keyTimes="0;0.041649;0.166597;0.208247;0.333195;0.333611;0.37526;0.708455;0.958351;1;1"
          fill="freeze"
        />

        <g transform="rotate(0)">

          <animateTransform
            repeatCount="indefinite"
            type="rotate"
            attributeName="transform"
            dur="2.401s"
            values="0;0;0;0;-17.48;-17.48;-17.48;-17.48;0;0;0"
            keyTimes="0;0.041649;0.166597;0.208247;0.333195;0.333611;0.37526;0.708455;0.958351;1;1"
            fill="freeze"
          />

          <g transform="scale(0.08,0.08)">

            <g transform="translate(-8,-8)">

              <path
                d="M8,-92C8,-92,94.6,58,94.6,58C94.6,58,-78.6,58,-78.6,58C-78.6,58,8,-92,8,-92Z"
                fill-rule="evenodd"
                fill="#1e1e1e"
              />

            </g>

          </g>

        </g>

      </g>

    </g>

    <!-- ================= CAT PART i2 ================= -->

    <g id="i2">

      <g transform="translate(237.04,125)">

        <animateTransform
          repeatCount="indefinite"
          type="translate"
          attributeName="transform"
          dur="2.401s"
          values="237.04 125;237.04 125;239.28 127.17;239.28 127.17;237.04 125;237.04 125;237.04 125;237.04 125;237.04 125;237.04 125;237.04 125"
          keyTimes="0;0.041649;0.166597;0.208247;0.333195;0.333611;0.37526;0.708455;0.958351;1;1"
          fill="freeze"
        />

        <g transform="rotate(0)">

          <animateTransform
            repeatCount="indefinite"
            type="rotate"
            attributeName="transform"
            dur="2.401s"
            values="0;0;12.93;12.93;0;0;0;0;0;0;0"
            keyTimes="0;0.041649;0.166597;0.208247;0.333195;0.333611;0.37526;0.708455;0.958351;1;1"
            fill="freeze"
          />

          <g transform="scale(0.08,0.08)">

            <g transform="translate(-8,-8)">

              <path
                d="M8,-92C8,-92,94.6,58,94.6,58C94.6,58,-78.6,58,-78.6,58C-78.6,58,8,-92,8,-92Z"
                fill-rule="evenodd"
                fill="#1e1e1e"
              />

            </g>

          </g>

        </g>

      </g>

    </g>

    <!-- ================= CAT PART i3 ================= -->

    <g id="i3">

      <g transform="translate(168.32,172.91)">

        <animateTransform
          repeatCount="indefinite"
          type="translate"
          attributeName="transform"
          dur="2.401s"
          values="168.32 172.91;168.32 172.91;171.98 171.11;171.98 171.11;168.32 172.91;168.32 172.91;168.32 172.91;168.32 172.91;168.32 172.91;168.32 172.91;168.32 172.91"
          keyTimes="0;0.041649;0.166597;0.208247;0.333195;0.333611;0.37526;0.708455;0.958351;1;1"
          fill="freeze"
        />

        <g transform="rotate(0)">

          <g transform="scale(1,1)">

            <g transform="translate(-23.32,-7.91)">

              <path
                d="M46.64,15.45C29.64,17.62,-2.36,10,0.14,0"
                stroke-linecap="round"
                stroke-width="7"
                stroke="#1e1e1e"
              />

            </g>

          </g>

        </g>

      </g>

    </g>

    <!-- ================= CAT PART i4 ================= -->

    <g id="i4">

      <g transform="translate(215,142)">

        <animateTransform
          repeatCount="indefinite"
          type="translate"
          attributeName="transform"
          dur="2.401s"
          values="215 142;215 142;221 142;221 142;209 142;209 142;209 142;209 142;215 142;215 142;215 142"
          keyTimes="0;0.041649;0.166597;0.208247;0.333195;0.333611;0.37526;0.708455;0.958351;1;1"
          fill="freeze"
        />

        <g transform="rotate(0)">

          <g transform="scale(1,1)">

            <g transform="translate(-3,-3)">

              <path
                d="M3,0C4.66,0,6,1.34,6,3C6,4.66,4.66,6,3,6C1.34,6,0,4.66,0,3C0,1.34,1.34,0,3,0Z"
                fill="#ffffff"
              />

            </g>

          </g>

        </g>

      </g>

    </g>

    <!-- ================= CAT PART i5 ================= -->

    <g id="i5">

      <g transform="translate(228,142)">

        <animateTransform
          repeatCount="indefinite"
          type="translate"
          attributeName="transform"
          dur="2.401s"
          values="228 142;228 142;234 142;234 142;222 142;222 142;222 142;222 142;228 142;228 142;228 142"
          keyTimes="0;0.041649;0.166597;0.208247;0.333195;0.333611;0.37526;0.708455;0.958351;1;1"
          fill="freeze"
        />

        <g transform="rotate(0)">

          <g transform="scale(1,1)">

            <g transform="translate(-3,-3)">

              <path
                d="M3,0C4.66,0,6,1.34,6,3C6,4.66,4.66,6,3,6C1.34,6,0,1.34,0,3C0,1.34,1.34,0,3,0Z"
                fill="#ffffff"
              />

            </g>

          </g>

        </g>

      </g>

    </g>

  </g>

  <!-- =====================================================
       FOOTER
       ===================================================== -->
<!-- GitHub icon -->
<g transform="translate(90 317) scale(0.55)" fill="#ffffff" opacity="0.45">
  <path d="M12 0C5.37 0 0 5.37 0 12c0 5.3 3.44 9.8 8.2 11.39.6.11.82-.26.82-.58v-2.04c-3.34.73-4.04-1.61-4.04-1.61-.55-1.39-1.33-1.76-1.33-1.76-1.09-.75.08-.74.08-.74 1.2.08 1.83 1.23 1.83 1.23 1.07 1.83 2.8 1.3 3.48.99.11-.77.42-1.3.76-1.6-2.67-.3-5.47-1.34-5.47-5.93 0-1.31.47-2.38 1.23-3.22-.12-.3-.53-1.52.12-3.17 0 0 1-.32 3.3 1.23a11.5 11.5 0 0 1 6 0c2.3-1.55 3.3-1.23 3.3-1.23.65 1.65.24 2.87.12 3.17.76.84 1.23 1.91 1.23 3.22 0 4.6-2.8 5.62-5.48 5.92.43.37.81 1.1.81 2.22v3.29c0 .32.22.69.83.57A12.01 12.01 0 0 0 24 12c0-6.63-5.37-12-12-12Z"/>
</g>

<text 
  x="112" 
  y="328" 
  fill="#ffffff" 
  font-family="monospace" 
  font-size="11" 
  letter-spacing="3" 
  opacity="0.35"
>
  rainniel2
</text>

  <text
    x="1110"
    y="330"
    fill="#ffffff"
    font-family="monospace"
    font-size="11"
    letter-spacing="3"
    text-anchor="end"
    opacity="0.35"
  >
    ONLINE
  </text>

</svg>